<svg xmlns="http://www.w3.org/2000/svg" viewBox="0 0 120 120" width="120" height="120">
<style>
  * { transform-box: fill-box; transform-origin: 50% 50%; }
  @media (prefers-reduced-motion: reduce) {
    * { animation: none !important; }
  }
  .d1,.d2 { animation: dampf 2.3s ease-in-out infinite; }
  .d2 { animation-delay: .8s }
  @keyframes dampf { 0%{opacity:0;transform:translateY(8px) scale(.8)} 30%{opacity:.9} 100%{opacity:0;transform:translateY(-12px) scale(1.15)} }
</style>
<path d="M26 52 h56 v26 a28 28 0 0 1 -56 0 z" fill="#fdf8f0" stroke="rgba(0,0,0,.2)" stroke-width="3"/><path d="M82 58 h10 a12 12 0 0 1 0 24 h-10" fill="none" stroke="rgba(0,0,0,.2)" stroke-width="3"/><path d="M30 58 h48 v18 a24 24 0 0 1 -48 0 z" fill="#6b4a3f"/><rect x="16" y="100" width="76" height="7" rx="3.5" fill="rgba(0,0,0,.2)"/><g class="d1"><path d="M42 44 q6 -8 0 -16 q-6 -8 0 -14" stroke="#cbbfae" stroke-width="3.5" fill="none" stroke-linecap="round"/></g><g class="d2"><path d="M64 44 q6 -8 0 -16 q-6 -8 0 -14" stroke="#cbbfae" stroke-width="3.5" fill="none" stroke-linecap="round"/></g>
</svg>
