<svg xmlns="http://www.w3.org/2000/svg" viewBox="0 0 120 120" width="120" height="120">
<style>
  * { transform-box: fill-box; transform-origin: 50% 50%; }
  @media (prefers-reduced-motion: reduce) {
    * { animation: none !important; }
  }
  .li { animation: kli 0.4s ease-in-out infinite; }
  .re { animation: kre 0.4s ease-in-out infinite; }
  .fz { animation: fz 0.4s ease-out infinite; }
  @keyframes kli { 0%,100%{transform:translateX(-17px) rotate(-14deg)} 50%{transform:translateX(1px) rotate(0)} }
  @keyframes kre { 0%,100%{transform:translateX(17px) rotate(14deg)} 50%{transform:translateX(-1px) rotate(0)} }
  @keyframes fz { 0%,42%{opacity:0} 54%{opacity:.95} 100%{opacity:0} }
</style>
<g class="li"><g transform="translate(60 0) scale(-1 1)"><path d="M2 108 L2 86 Q2 78 12 78 L24 78 L24 108 Z" fill="#f3b57b" stroke="rgba(120,70,30,.42)" stroke-width="2.4" stroke-linejoin="round"/><path d="M2 84 Q2 54 14 44 Q24 36 34 44 Q42 51 42 66 L42 84 Q42 94 32 94 L12 94 Q2 94 2 84 Z" fill="#f3b57b" stroke="rgba(120,70,30,.42)" stroke-width="2.4" stroke-linejoin="round"/><path d="M8 52 L8 76 M16 46 L16 76 M24 45 L24 76 M32 50 L32 76" stroke="rgba(120,70,30,.42)" stroke-width="1.7" opacity=".55"/></g></g><g class="re"><g transform="translate(60 0) scale(1 1)"><path d="M2 108 L2 86 Q2 78 12 78 L24 78 L24 108 Z" fill="#e8a768" stroke="rgba(120,70,30,.42)" stroke-width="2.4" stroke-linejoin="round"/><path d="M2 84 Q2 54 14 44 Q24 36 34 44 Q42 51 42 66 L42 84 Q42 94 32 94 L12 94 Q2 94 2 84 Z" fill="#e8a768" stroke="rgba(120,70,30,.42)" stroke-width="2.4" stroke-linejoin="round"/><path d="M8 52 L8 76 M16 46 L16 76 M24 45 L24 76 M32 50 L32 76" stroke="rgba(120,70,30,.42)" stroke-width="1.7" opacity=".55"/></g></g><g class="fz" opacity="0"><path d="M60 30 L60 14 M42 36 L32 22 M78 36 L88 22 M28 56 L12 50 M92 56 L108 50" stroke="#f7c948" stroke-width="4" stroke-linecap="round"/></g>
</svg>
