<svg xmlns="http://www.w3.org/2000/svg" viewBox="0 0 120 120" width="120" height="120">
<style>
  * { transform-box: fill-box; transform-origin: 50% 50%; }
  @media (prefers-reduced-motion: reduce) {
    * { animation: none !important; }
  }
  .t0,.t1,.t2,.t3 { animation: fallen 1.5s ease-in infinite; }
  .t1{animation-delay:.38s} .t2{animation-delay:.75s} .t3{animation-delay:1.12s}
  @keyframes fallen { 0%{opacity:0;transform:translateY(-8px) scaleY(.7)} 18%{opacity:1;transform:translateY(0) scaleY(1)} 82%{opacity:1} 100%{opacity:0;transform:translateY(32px) scaleY(1.25)} }
</style>
<path d="M32 50 a18 18 0 0 1 17 -17 a22 22 0 0 1 41 6 a15 15 0 0 1 -3 29 H36 a15 15 0 0 1 -4 -18 z" fill="#cfdfe9" stroke="rgba(60,90,120,.3)" stroke-width="2.5" stroke-linejoin="round"/><g class="t0"><path d="M36 72 q5.5 9 5.5 13.5 a5.5 5.5 0 0 1 -11 0 q0 -4.5 5.5 -13.5 z" fill="#5b9bd5" stroke="rgba(30,70,110,.35)" stroke-width="1.4"/></g><g class="t1"><path d="M54 72 q5.5 9 5.5 13.5 a5.5 5.5 0 0 1 -11 0 q0 -4.5 5.5 -13.5 z" fill="#5b9bd5" stroke="rgba(30,70,110,.35)" stroke-width="1.4"/></g><g class="t2"><path d="M72 72 q5.5 9 5.5 13.5 a5.5 5.5 0 0 1 -11 0 q0 -4.5 5.5 -13.5 z" fill="#5b9bd5" stroke="rgba(30,70,110,.35)" stroke-width="1.4"/></g><g class="t3"><path d="M90 72 q5.5 9 5.5 13.5 a5.5 5.5 0 0 1 -11 0 q0 -4.5 5.5 -13.5 z" fill="#5b9bd5" stroke="rgba(30,70,110,.35)" stroke-width="1.4"/></g>
</svg>
