<svg xmlns="http://www.w3.org/2000/svg" viewBox="0 0 120 120" width="120" height="120">
<style>
  @media (prefers-reduced-motion: reduce) { * { animation: none !important; } }
  .um { animation: druecken 2.6s ease-in-out infinite; transform-box: view-box; transform-origin: 50% 92%; }
  .hz { animation: hoch 2.6s ease-in-out infinite; transform-box: fill-box; transform-origin: 50% 50%; }
  @keyframes druecken { 0%,100%{transform:scale(1,1)} 44%{transform:scale(.965,1.025)} 64%{transform:scale(.99,1.008)} }
  @keyframes hoch { 0%,20%{opacity:0;transform:translateY(10px) scale(.6)} 50%{opacity:1;transform:translateY(-2px) scale(1.1)} 100%{opacity:0;transform:translateY(-16px) scale(.9)} }
</style>
<g class="um">
  <!-- hinten: die rechte Figur -->
  <rect x="71.5" y="56" width="9" height="12" rx="3.5" fill="#e8a768" stroke="rgba(60,40,20,.32)" stroke-width="1.4"/>
  <path d="
      M61 69
      Q60 62 66 61
      L86 61
      Q92 62 91 69
      Q98 90 98 114
      L54 114
      Q54 90 61 72 Z"
    fill="#6aa6ee" stroke="rgba(60,40,20,.32)" stroke-width="2" stroke-linejoin="round"/>
  <g transform="rotate(-7 76 46)">
      <circle cx="76" cy="46" r="14" fill="#e8a768" stroke="rgba(60,40,20,.32)" stroke-width="2"/>
      <path d="M62 44 Q64 30 76 30 Q88 30 90 44 Q86 37 76 37 Q66 37 62 44 Z" fill="#3f342c" opacity=".85"/>
      <circle cx="71.2" cy="44.6" r="1.9" fill="#4a3526"/>
      <circle cx="80.8" cy="44.6" r="1.9" fill="#4a3526"/>
      <path d="M71.5 51 q4.5 3.8 9 0"
        stroke="#4a3526" stroke-width="1.7" fill="none" stroke-linecap="round"/>
      <ellipse cx="67.3" cy="50.2" rx="2.6" ry="1.7" fill="#e0546a" opacity=".3"/>
      <ellipse cx="84.7" cy="50.2" rx="2.6" ry="1.7" fill="#e0546a" opacity=".3"/>
    </g>
  <!-- ihr Arm geht HINTER der linken Figur um deren Rücken -->
  <path d="M63.2 67.3 Q45.3 75.9 27.4 74.5 L28.6 81.5 Q46.7 84.1 64.8 76.7 Z" fill="#e8a768" stroke="rgba(60,40,20,.32)" stroke-width="1.8" stroke-linejoin="round"/>
  <!-- vorn: die linke Figur -->
  <rect x="39.5" y="56" width="9" height="12" rx="3.5" fill="#f3b57b" stroke="rgba(60,40,20,.32)" stroke-width="1.4"/>
  <path d="
      M29 69
      Q28 62 34 61
      L54 61
      Q60 62 59 69
      Q66 90 66 114
      L22 114
      Q22 90 29 72 Z"
    fill="#e0546a" stroke="rgba(60,40,20,.32)" stroke-width="2" stroke-linejoin="round"/>
  <g transform="rotate(8 44 44)">
      <circle cx="44" cy="44" r="14" fill="#f3b57b" stroke="rgba(60,40,20,.32)" stroke-width="2"/>
      <path d="M30 42 Q32 28 44 28 Q56 28 58 42 Q54 35 44 35 Q34 35 30 42 Z" fill="#6b4a2f" opacity=".9"/>
      <circle cx="39.2" cy="42.6" r="1.9" fill="#4a3526"/>
      <circle cx="48.8" cy="42.6" r="1.9" fill="#4a3526"/>
      <path d="M39.5 49 q4.5 3.8 9 0"
        stroke="#4a3526" stroke-width="1.7" fill="none" stroke-linecap="round"/>
      <ellipse cx="35.3" cy="48.2" rx="2.6" ry="1.7" fill="#e0546a" opacity=".3"/>
      <ellipse cx="52.7" cy="48.2" rx="2.6" ry="1.7" fill="#e0546a" opacity=".3"/>
    </g>
  <!-- ihre Hand liegt auf der Schulter der rechten Figur -->
  <g transform="rotate(-16 26 77)">
      <path d="M20 72 Q31 70 32 77
               Q32 83 25 83
               Q19 82 20 72 Z"
        fill="#e8a768" stroke="rgba(60,40,20,.32)" stroke-width="1.6" stroke-linejoin="round"/>
      <rect x="20.5" y="68.5" width="4.2" height="7" rx="2.1"
       fill="#e8a768" stroke="rgba(60,40,20,.32)" stroke-width="1.2"
       transform="rotate(-12 22.6 72)"/>
      <rect x="24.8" y="67.8" width="4.4" height="8" rx="2.2"
       fill="#e8a768" stroke="rgba(60,40,20,.32)" stroke-width="1.2"
       transform="rotate(-3 27 71.8)"/>
      <rect x="29" y="68.8" width="4" height="7" rx="2"
       fill="#e8a768" stroke="rgba(60,40,20,.32)" stroke-width="1.2"
       transform="rotate(6 31 72.3)"/>
      <rect x="17.5" y="75" width="4" height="6" rx="2"
       fill="#e8a768" stroke="rgba(60,40,20,.32)" stroke-width="1.2"
       transform="rotate(-66 19.5 78)"/>
    </g>
  <ellipse cx="57" cy="71" rx="7" ry="6.5" fill="#e0546a" stroke="rgba(60,40,20,.32)" stroke-width="1.8"/>
  <path d="M57.4 76.7 Q74.5 83.1 91.6 79.5 L92.4 72.5 Q75.5 74.9 58.6 67.3 Z" fill="#f3b57b" stroke="rgba(60,40,20,.32)" stroke-width="1.8" stroke-linejoin="round"/>
  <g transform="rotate(12 94 75)">
      <path d="M88 70 Q99 68 100 75
               Q100 81 93 81
               Q87 80 88 70 Z"
        fill="#f3b57b" stroke="rgba(60,40,20,.32)" stroke-width="1.6" stroke-linejoin="round"/>
      <rect x="88.5" y="66.5" width="4.2" height="7" rx="2.1"
       fill="#f3b57b" stroke="rgba(60,40,20,.32)" stroke-width="1.2"
       transform="rotate(-12 90.6 70)"/>
      <rect x="92.8" y="65.8" width="4.4" height="8" rx="2.2"
       fill="#f3b57b" stroke="rgba(60,40,20,.32)" stroke-width="1.2"
       transform="rotate(-3 95 69.8)"/>
      <rect x="97" y="66.8" width="4" height="7" rx="2"
       fill="#f3b57b" stroke="rgba(60,40,20,.32)" stroke-width="1.2"
       transform="rotate(6 99 70.3)"/>
      <rect x="85.5" y="73" width="4" height="6" rx="2"
       fill="#f3b57b" stroke="rgba(60,40,20,.32)" stroke-width="1.2"
       transform="rotate(-66 87.5 76)"/>
    </g>
</g>
<g class="hz"><path d="M60 14 C50 6 44 14 48 21 C51 26 60 30 60 30 C60 30 69 26 72 21 C76 14 70 8 60 16 Z" fill="#e0546a"/></g>
</svg>